<!--?xml version="1.0" encoding="utf-8"?-->
<!-- Generator: Adobe Illustrator 18.1.1, SVG Export Plug-In . SVG Version: 6.00 Build 0)  -->

<svg version="1.1" id="_x31_0" xmlns="http://www.w3.org/2000/svg" xmlns:xlink="http://www.w3.org/1999/xlink" x="0px" y="0px" viewBox="0 0 512 512" style="width: 256px; height: 256px; opacity: 1;" xml:space="preserve">
<style type="text/css">
	.st0{fill:#374149;}
</style>
<g>
	<path class="st0" d="M117.163,0v76.352l-0.126,62.341c0.034-0.045,0.091-0.094,0.126-0.14v0.231
		c0.39-0.542,0.931-1.087,1.474-1.629c13.886-13.886,32.352-21.568,52.057-21.568c4.219,0,8.306,0.375,12.386,1.098
		c0.284,0.061,0.594,0.076,0.874,0.144v-0.022c0.054,0.011,0.106,0.014,0.159,0.022V67.026h252.974v376.951v1h-55.985l-196.966-0.55
		c-0.008,0.004-0.015,0.004-0.023,0.004v-0.155c-4.424,0.776-8.924,1.242-13.42,1.242c-4.735,0-9.466-0.466-14.042-1.318
		c-4.656-0.932-9.231-2.25-13.656-4.034c-9.151-3.723-17.299-9.155-24.359-16.216c-0.345-0.344-0.728-0.754-1.095-1.155
		c-0.072-0.132-0.178-0.254-0.223-0.394v0.162c-0.05-0.057-0.106-0.106-0.155-0.162v89.17v0.273l0,0V512h386.95V0H117.163z" style="fill: rgb(255, 255, 255);"></path>
	<path class="st0" d="M141.992,323.102l17.341,0.11l-18.742,18.742c-3.023,3.026-5.583,6.515-7.523,10.238
		c-1.318,2.406-2.405,5.046-3.182,7.682c-1.163,3.954-1.705,7.989-1.705,12.102c0,4.11,0.542,8.144,1.705,12.102
		c2.019,6.746,5.742,12.955,10.705,17.997c4.034,4.034,8.769,7.136,14.042,9.31c2.561,1.007,5.197,1.784,7.913,2.326
		c2.636,0.542,5.432,0.777,8.148,0.777c2.712,0,5.428-0.235,8.064-0.777c1.864-0.386,3.648-0.852,5.356-1.398
		c6.205-2.094,11.867-5.583,16.598-10.238l91.697-91.694c7.914-7.992,12.334-18.542,12.334-29.791
		c0-11.326-4.42-21.875-12.334-29.864l-91.697-91.618c-4.731-4.734-10.394-8.223-16.598-10.242c-4.269-1.474-8.769-2.25-13.42-2.25
		c-11.406,0-22.034,4.424-30.102,12.492c-3.023,3.023-5.583,6.515-7.523,10.239c-1.318,2.405-2.405,5.042-3.182,7.682
		c-1.163,3.954-1.705,7.989-1.705,12.098c0,4.114,0.542,8.148,1.705,12.102c2.019,6.75,5.742,12.958,10.705,18l11.079,11.079
		l7.622,7.769h-42.129H50.398c-23.428,0-42.511,19.084-42.511,42.512c0,23.428,19.083,42.511,42.511,42.511h66.765H141.992z" style="fill: rgb(255, 255, 255);"></path>
</g>
</svg>
